<?xml version="1.0" encoding="UTF-8" standalone="no"?>
<svg
    xmlns:dc="http://purl.org/dc/elements/1.1/"
    xmlns:cc="http://creativecommons.org/ns#"
    xmlns:rdf="http://www.w3.org/1999/02/22-rdf-syntax-ns#"
    xmlns:sodipodi="http://sodipodi.sourceforge.net/DTD/sodipodi-0.dtd"
    xmlns:inkscape="http://www.inkscape.org/namespaces/inkscape"
    xmlns="http://www.w3.org/2000/svg"
    version="1.1"
    height="59"
    width="361.11497802734374"
    viewBox="0 0 361.11497802734374 59"
    id="svg2"
    inkscape:version="0.91 r13725"
    sodipodi:docname="pbs-logo.svg">
    <metadata
        id="metadata13">
        <rdf:RDF>
            <cc:Work
                rdf:about="">
                <dc:format>image/svg+xml</dc:format>
                <dc:type
                    rdf:resource="http://purl.org/dc/dcmitype/StillImage"/>
                <dc:title></dc:title>
            </cc:Work>
        </rdf:RDF>
    </metadata>
    <sodipodi:namedview
        pagecolor="#ffffff"
        bordercolor="#666666"
        borderopacity="1"
        objecttolerance="10"
        gridtolerance="10"
        guidetolerance="10"
        inkscape:pageopacity="0"
        inkscape:pageshadow="2"
        inkscape:window-width="640"
        inkscape:window-height="480"
        id="namedview11"
        showgrid="false"
        inkscape:zoom="1.102142"
        inkscape:cx="180.5575"
        inkscape:cy="29.5"
        inkscape:window-x="0"
        inkscape:window-y="0"
        inkscape:window-maximized="0"
        inkscape:current-layer="svg2"/>
    <g
        id="SvgjsG1178"
        rel="mainfill"
        name="main_text"
        fill="#000000"
        transform="translate(68.67499990463256,6.429999351501465)">
        <path
            d="M3.51 15 l9.51 0 c0.42 0 0.84 0.03 1.26 0.12 s0.84 0.21 1.2 0.39 c0.39 0.15 0.75 0.36 1.11 0.57 c0.33 0.24 0.66 0.51 0.93 0.78 c0.3 0.3 0.57 0.6 0.78 0.96 c0.24 0.33 0.45 0.69 0.6 1.08 s0.3 0.78 0.36 1.2 c0.09 0.42 0.15 0.84 0.15 1.29 c0 0.42 -0.06 0.87 -0.15 1.29 c-0.06 0.42 -0.21 0.81 -0.36 1.2 s-0.36 0.75 -0.6 1.08 c-0.21 0.33 -0.48 0.66 -0.78 0.96 c-0.27 0.27 -0.6 0.54 -0.93 0.78 c-0.36 0.21 -0.72 0.42 -1.11 0.57 c-0.36 0.18 -0.78 0.3 -1.2 0.39 s-0.84 0.12 -1.26 0.12 l-6.03 0 l0 8.22 l-3.48 0 l0 -8.22 l-2.61 -1.74 l2.61 -1.74 l0 -9.3 z M6.99 24.3 l6.03 0 c0.39 0 0.75 -0.06 1.11 -0.21 s0.66 -0.36 0.93 -0.63 s0.48 -0.6 0.63 -0.93 c0.15 -0.36 0.24 -0.75 0.24 -1.14 s-0.09 -0.78 -0.24 -1.14 s-0.36 -0.66 -0.63 -0.93 s-0.57 -0.48 -0.93 -0.63 s-0.72 -0.21 -1.11 -0.21 l-6.03 0 l0 5.82 z M33.84 14.370000000000001 c6.15 0 11.13 4.98 11.13 11.13 s-4.98 11.13 -11.13 11.13 c-6.12 0 -11.13 -4.98 -11.13 -11.13 s5.01 -11.13 11.13 -11.13 z M33.84 33.15 c4.23 0 7.68 -3.42 7.68 -7.65 s-3.45 -7.65 -7.68 -7.65 s-7.65 3.42 -7.65 7.65 s3.42 7.65 7.65 7.65 z M54.779999999999994 14.370000000000001 l2.34 0 c0.42 0 0.81 0.03 1.2 0.12 c0.39 0.06 0.78 0.18 1.14 0.33 s0.75 0.36 1.08 0.57 c0.33 0.24 0.66 0.51 0.96 0.78 l-2.46 2.46 c-0.51 -0.51 -1.17 -0.78 -1.92 -0.78 l-2.34 0 c-0.72 0 -1.41 0.27 -1.92 0.78 s-0.81 1.2 -0.81 1.92 s0.3 1.41 0.81 1.92 s1.2 0.81 1.92 0.81 l1.89 0 c0.45 0 0.87 0.03 1.29 0.12 s0.84 0.21 1.23 0.36 c0.42 0.18 0.81 0.36 1.17 0.63 c0.39 0.24 0.72 0.51 1.05 0.84 s0.6 0.66 0.84 1.05 c0.24 0.36 0.45 0.75 0.63 1.17 c0.15 0.39 0.27 0.81 0.36 1.23 s0.12 0.84 0.12 1.26 c0 0.45 -0.03 0.87 -0.12 1.29 s-0.21 0.84 -0.36 1.23 c-0.18 0.42 -0.39 0.81 -0.63 1.17 s-0.51 0.72 -0.84 1.05 s-0.66 0.6 -1.05 0.84 c-0.36 0.24 -0.75 0.45 -1.17 0.63 c-0.39 0.15 -0.81 0.27 -1.23 0.36 s-0.84 0.12 -1.29 0.12 l-3.36 0 c-0.45 0 -0.87 -0.03 -1.29 -0.12 s-0.84 -0.21 -1.23 -0.36 c-0.42 -0.18 -0.81 -0.39 -1.17 -0.63 s-0.72 -0.51 -1.05 -0.84 l2.46 -2.46 c0.3 0.3 0.66 0.54 1.05 0.69 c0.39 0.18 0.81 0.24 1.23 0.24 l3.36 0 c0.42 0 0.84 -0.06 1.23 -0.24 c0.39 -0.15 0.75 -0.39 1.05 -0.69 s0.54 -0.66 0.69 -1.05 c0.18 -0.39 0.24 -0.81 0.24 -1.23 c0 -0.39 -0.06 -0.81 -0.24 -1.2 c-0.15 -0.39 -0.39 -0.75 -0.69 -1.05 s-0.66 -0.54 -1.05 -0.72 c-0.39 -0.15 -0.81 -0.21 -1.23 -0.24 l-1.89 0 c-0.39 0 -0.81 -0.03 -1.17 -0.09 c-0.42 -0.09 -0.78 -0.21 -1.17 -0.36 c-0.36 -0.15 -0.72 -0.33 -1.08 -0.57 c-0.33 -0.21 -0.66 -0.48 -0.96 -0.78 s-0.57 -0.63 -0.78 -0.96 c-0.24 -0.36 -0.42 -0.72 -0.57 -1.08 c-0.15 -0.39 -0.27 -0.75 -0.36 -1.14 c-0.06 -0.39 -0.09 -0.81 -0.09 -1.2 s0.03 -0.78 0.09 -1.17 c0.09 -0.39 0.21 -0.78 0.36 -1.14 c0.15 -0.39 0.33 -0.75 0.57 -1.08 c0.21 -0.36 0.48 -0.69 0.78 -0.99 c0.3 -0.27 0.63 -0.54 0.96 -0.78 c0.36 -0.21 0.72 -0.42 1.08 -0.57 c0.39 -0.15 0.75 -0.27 1.17 -0.33 c0.36 -0.09 0.78 -0.12 1.17 -0.12 z M83.94 18.48 l-6.06 0 l0 17.52 l-3.45 0 l0 -17.52 l-6.06 0 l-2.61 -1.74 l2.61 -1.74 l15.57 0 l2.61 1.74 z M90.33 15 l9.9 0 c0.81 0 1.59 0.15 2.34 0.48 c0.36 0.15 0.69 0.33 1.02 0.54 s0.6 0.48 0.87 0.75 s0.54 0.54 0.75 0.87 s0.39 0.66 0.54 1.02 c0.33 0.75 0.48 1.53 0.48 2.34 s-0.15 1.59 -0.48 2.31 c-0.15 0.36 -0.33 0.72 -0.54 1.02 l-0.48 0.63 c0.12 0.12 0.27 0.24 0.39 0.36 c0.27 0.3 0.54 0.6 0.75 0.93 c0.24 0.33 0.42 0.69 0.6 1.08 c0.15 0.36 0.27 0.75 0.36 1.17 s0.12 0.84 0.12 1.26 s-0.03 0.84 -0.12 1.26 c-0.09 0.39 -0.21 0.78 -0.36 1.17 c-0.18 0.36 -0.36 0.72 -0.6 1.05 c-0.21 0.36 -0.48 0.66 -0.75 0.93 c-0.27 0.3 -0.6 0.54 -0.93 0.78 c-0.33 0.21 -0.69 0.42 -1.05 0.57 c-0.39 0.15 -0.78 0.27 -1.17 0.36 c-0.42 0.09 -0.84 0.12 -1.26 0.12 l-10.38 0 l0 -9.03 l-2.58 -1.74 l2.58 -1.74 l0 -8.49 z M93.80999999999999 23.490000000000002 l6.42 0 c0.69 0 1.32 -0.24 1.8 -0.72 c0.45 -0.48 0.72 -1.11 0.72 -1.77 c0 -0.69 -0.27 -1.32 -0.72 -1.8 c-0.48 -0.45 -1.11 -0.72 -1.8 -0.72 l-6.42 0 l0 5.01 z M93.80999999999999 32.55 l6.9 0 c0.72 0 1.44 -0.3 1.95 -0.84 c0.54 -0.51 0.81 -1.2 0.81 -1.95 s-0.27 -1.44 -0.81 -1.98 c-0.51 -0.51 -1.23 -0.81 -1.95 -0.81 l-6.9 0 l0 5.58 z M127.43999999999998 15 l0 18.15 c-4.65 4.68 -12.24 4.68 -16.89 0 l0 -18.15 l3.48 0 l0 16.59 c2.94 2.13 6.99 2.13 9.96 0 l0 -16.59 l3.45 0 z M133.49999999999997 13.2 c-1.35 0 -2.46 -1.08 -2.46 -2.43 s1.11 -2.46 2.46 -2.46 s2.43 1.11 2.43 2.46 s-1.08 2.43 -2.43 2.43 z M131.76 15 l3.48 0 l0 21 l-3.48 0 l0 -21 z M139.82999999999998 36 l7.59 0 c3.06 0 5.85 -1.26 7.86 -3.27 l-2.46 -2.46 c-1.38 1.41 -3.3 2.25 -5.4 2.25 l-4.11 0 l0 -17.52 l-3.48 0 l0 21 z M158.27999999999997 33.36 l0 -15.75 c4.35 -4.32 11.4 -4.32 15.72 0 c4.35 4.35 4.35 11.4 0 15.75 s-11.4 4.35 -15.72 0 z M161.73 19.23 l0 12.54 c3 2.1 7.14 1.8 9.81 -0.87 c3 -2.97 3 -7.83 0 -10.83 c-2.67 -2.67 -6.81 -2.94 -9.81 -0.84 z M187.07999999999998 14.370000000000001 l2.34 0 c0.42 0 0.81 0.03 1.2 0.12 c0.39 0.06 0.78 0.18 1.14 0.33 s0.75 0.36 1.08 0.57 c0.33 0.24 0.66 0.51 0.96 0.78 l-2.46 2.46 c-0.51 -0.51 -1.17 -0.78 -1.92 -0.78 l-2.34 0 c-0.72 0 -1.41 0.27 -1.92 0.78 s-0.81 1.2 -0.81 1.92 s0.3 1.41 0.81 1.92 s1.2 0.81 1.92 0.81 l1.89 0 c0.45 0 0.87 0.03 1.29 0.12 s0.84 0.21 1.23 0.36 c0.42 0.18 0.81 0.36 1.17 0.63 c0.39 0.24 0.72 0.51 1.05 0.84 s0.6 0.66 0.84 1.05 c0.24 0.36 0.45 0.75 0.63 1.17 c0.15 0.39 0.27 0.81 0.36 1.23 s0.12 0.84 0.12 1.26 c0 0.45 -0.03 0.87 -0.12 1.29 s-0.21 0.84 -0.36 1.23 c-0.18 0.42 -0.39 0.81 -0.63 1.17 s-0.51 0.72 -0.84 1.05 s-0.66 0.6 -1.05 0.84 c-0.36 0.24 -0.75 0.45 -1.17 0.63 c-0.39 0.15 -0.81 0.27 -1.23 0.36 s-0.84 0.12 -1.29 0.12 l-3.36 0 c-0.45 0 -0.87 -0.03 -1.29 -0.12 s-0.84 -0.21 -1.23 -0.36 c-0.42 -0.18 -0.81 -0.39 -1.17 -0.63 s-0.72 -0.51 -1.05 -0.84 l2.46 -2.46 c0.3 0.3 0.66 0.54 1.05 0.69 c0.39 0.18 0.81 0.24 1.23 0.24 l3.36 0 c0.42 0 0.84 -0.06 1.23 -0.24 c0.39 -0.15 0.75 -0.39 1.05 -0.69 s0.54 -0.66 0.69 -1.05 c0.18 -0.39 0.24 -0.81 0.24 -1.23 c0 -0.39 -0.06 -0.81 -0.24 -1.2 c-0.15 -0.39 -0.39 -0.75 -0.69 -1.05 s-0.66 -0.54 -1.05 -0.72 c-0.39 -0.15 -0.81 -0.21 -1.23 -0.24 l-1.89 0 c-0.39 0 -0.81 -0.03 -1.17 -0.09 c-0.42 -0.09 -0.78 -0.21 -1.17 -0.36 c-0.36 -0.15 -0.72 -0.33 -1.08 -0.57 c-0.33 -0.21 -0.66 -0.48 -0.96 -0.78 s-0.57 -0.63 -0.78 -0.96 c-0.24 -0.36 -0.42 -0.72 -0.57 -1.08 c-0.15 -0.39 -0.27 -0.75 -0.36 -1.14 c-0.06 -0.39 -0.09 -0.81 -0.09 -1.2 s0.03 -0.78 0.09 -1.17 c0.09 -0.39 0.21 -0.78 0.36 -1.14 c0.15 -0.39 0.33 -0.75 0.57 -1.08 c0.21 -0.36 0.48 -0.69 0.78 -0.99 c0.3 -0.27 0.63 -0.54 0.96 -0.78 c0.36 -0.21 0.72 -0.42 1.08 -0.57 c0.39 -0.15 0.75 -0.27 1.17 -0.33 c0.36 -0.09 0.78 -0.12 1.17 -0.12 z M215.78999999999996 30.9 l2.46 2.46 c-4.35 4.35 -11.37 4.35 -15.72 0 s-4.35 -11.37 0 -15.72 s11.37 -4.35 15.72 0 l-2.46 2.46 c-2.97 -3 -7.83 -3 -10.8 0 c-3 2.97 -3 7.83 0 10.8 c2.97 3 7.83 3 10.8 0 z M223.22999999999996 15 l9.51 0 c0.45 0 0.87 0.03 1.29 0.12 s0.81 0.21 1.2 0.39 c0.39 0.15 0.75 0.36 1.08 0.57 c0.36 0.24 0.66 0.51 0.96 0.78 c0.27 0.3 0.54 0.6 0.78 0.96 c0.24 0.33 0.42 0.69 0.57 1.08 c0.18 0.39 0.3 0.78 0.39 1.2 s0.12 0.84 0.12 1.29 c0 0.42 -0.03 0.87 -0.12 1.29 s-0.21 0.81 -0.39 1.2 c-0.15 0.39 -0.33 0.75 -0.57 1.08 s-0.51 0.66 -0.78 0.96 c-0.3 0.27 -0.6 0.54 -0.96 0.78 c-0.18 0.12 -0.39 0.24 -0.6 0.36 l0.72 0.66 c0.51 0.54 0.99 1.11 1.41 1.74 s0.81 1.29 1.08 1.98 c0.3 0.72 0.54 1.44 0.69 2.19 c0.15 0.78 0.24 1.59 0.24 2.37 l-3.48 0 c0 -1.11 -0.21 -2.19 -0.63 -3.21 c-0.21 -0.48 -0.48 -0.96 -0.78 -1.38 c-0.27 -0.45 -0.63 -0.84 -0.99 -1.23 c-0.36 -0.36 -0.78 -0.69 -1.23 -0.99 c-0.42 -0.3 -0.9 -0.57 -1.38 -0.75 c-0.96 -0.42 -2.01 -0.63 -3.06 -0.66 l-1.59 0 l0 8.22 l-3.48 0 l0 -8.22 l-2.58 -1.74 l2.58 -1.74 l0 -9.3 z M226.70999999999998 24.3 l6.03 0 c0.39 0 0.78 -0.06 1.14 -0.21 s0.66 -0.36 0.93 -0.63 s0.48 -0.6 0.63 -0.93 c0.15 -0.36 0.21 -0.75 0.21 -1.14 s-0.06 -0.78 -0.21 -1.14 s-0.36 -0.66 -0.63 -0.93 s-0.57 -0.48 -0.93 -0.63 s-0.75 -0.21 -1.14 -0.21 l-6.03 0 l0 5.82 z M245.90999999999997 13.2 c-1.35 0 -2.46 -1.08 -2.46 -2.43 s1.11 -2.46 2.46 -2.46 s2.43 1.11 2.43 2.46 s-1.08 2.43 -2.43 2.43 z M244.17 15 l3.48 0 l0 21 l-3.48 0 l0 -21 z M253.64999999999998 15 l9.51 0 c0.42 0 0.84 0.03 1.26 0.12 s0.84 0.21 1.2 0.39 c0.39 0.15 0.75 0.36 1.11 0.57 c0.33 0.24 0.66 0.51 0.93 0.78 c0.3 0.3 0.57 0.6 0.78 0.96 c0.24 0.33 0.45 0.69 0.6 1.08 s0.3 0.78 0.36 1.2 c0.09 0.42 0.15 0.84 0.15 1.29 c0 0.42 -0.06 0.87 -0.15 1.29 c-0.06 0.42 -0.21 0.81 -0.36 1.2 s-0.36 0.75 -0.6 1.08 c-0.21 0.33 -0.48 0.66 -0.78 0.96 c-0.27 0.27 -0.6 0.54 -0.93 0.78 c-0.36 0.21 -0.72 0.42 -1.11 0.57 c-0.36 0.18 -0.78 0.3 -1.2 0.39 s-0.84 0.12 -1.26 0.12 l-6.03 0 l0 8.22 l-3.48 0 l0 -8.22 l-2.61 -1.74 l2.61 -1.74 l0 -9.3 z M257.13 24.3 l6.03 0 c0.39 0 0.75 -0.06 1.11 -0.21 s0.66 -0.36 0.93 -0.63 s0.48 -0.6 0.63 -0.93 c0.15 -0.36 0.24 -0.75 0.24 -1.14 s-0.09 -0.78 -0.24 -1.14 s-0.36 -0.66 -0.63 -0.93 s-0.57 -0.48 -0.93 -0.63 s-0.72 -0.21 -1.11 -0.21 l-6.03 0 l0 5.82 z M289.83000000000004 18.48 l-6.06 0 l0 17.52 l-3.45 0 l0 -17.52 l-6.06 0 l-2.61 -1.74 l2.61 -1.74 l15.57 0 l2.61 1.74 z"
            id="path5"/>
    </g>
    <defs
        id="SvgjsDefs1177"/>
    <g
        id="SvgjsG1179"
        rel="mainfill"
        name="symbol"
        fill="#cdb300"
        transform="translate(-9.587500000000007,-7.375) scale(0.7375)">
        <path
            d="M77.5,36h-2.969C76.66,33.99,78,31.147,78,28c0-6.065-4.935-11-11-11c-0.866,0-1.724,0.103-2.563,0.306  C60.65,12.706,54.982,10,49,10c-5.524,0-10.697,2.241-14.466,6.21C32.293,14.775,29.68,14,27,14c-7.72,0-14,6.28-14,14  c0,5.168,2.822,9.681,7,12.106V84c0,3.309,2.691,6,6,6h40c3.309,0,6-2.691,6-6V72h5.5c5.238,0,9.5-4.262,9.5-9.5v-17  C87,40.262,82.738,36,77.5,36z M17,28c0-5.514,4.486-10,10-10c2.39,0,4.708,0.865,6.526,2.436c0.414,0.358,0.955,0.532,1.501,0.477  c0.544-0.053,1.043-0.327,1.381-0.758C39.471,16.243,44.061,14,49,14c5.178,0,10.063,2.537,13.066,6.787  c0.53,0.753,1.508,1.045,2.367,0.706C65.262,21.166,66.125,21,67,21c3.859,0,7,3.14,7,7s-3.141,7-7,7  c-0.315,0-0.655-0.029-1.068-0.092c-0.914-0.141-1.797,0.362-2.149,1.211C61.294,42.122,55.492,46,49,46  c-5.962,0-11.392-3.289-14.169-8.583c-0.254-0.484-0.695-0.844-1.222-0.994c-0.18-0.052-0.365-0.077-0.549-0.077  c-0.353,0-0.703,0.093-1.013,0.275C30.51,37.523,28.765,38,27,38C21.486,38,17,33.514,17,28z M66,86H26c-1.103,0-2-0.897-2-2V41.668  C24.968,41.88,25.97,42,27,42c1.81,0,3.604-0.356,5.278-1.042C35.957,46.58,42.201,50,49,50c7.617,0,14.476-4.272,17.86-11.001  c0.385,0.006,0.765-0.007,1.14-0.041V84C68,85.103,67.103,86,66,86z M83,62.5c0,3.032-2.468,5.5-5.5,5.5H72V40h5.5  c3.032,0,5.5,2.467,5.5,5.5V62.5z M38,74c-1.104,0-2-0.896-2-2V56c0-1.104,0.896-2,2-2s2,0.896,2,2v16C40,73.104,39.104,74,38,74z   M54,74c-1.104,0-2-0.896-2-2V56c0-1.104,0.896-2,2-2s2,0.896,2,2v16C56,73.104,55.104,74,54,74z"
            id="path9"/>
    </g>
</svg>
